<svg viewBox="0 0 1200 800" xmlns="http://www.w3.org/2000/svg">
  <defs>
    <linearGradient id="co1" x1="0" y1="0" x2="0" y2="1">
      <stop offset="0%" stop-color="#FFFFFF"/>
      <stop offset="100%" stop-color="#D8CEB4"/>
    </linearGradient>
    <radialGradient id="co2" cx="80%" cy="20%" r="60%">
      <stop offset="0%" stop-color="#FFF5DB" stop-opacity="0.8"/>
      <stop offset="100%" stop-color="#FFF5DB" stop-opacity="0"/>
    </radialGradient>
    <pattern id="cog" x="0" y="0" width="4" height="4" patternUnits="userSpaceOnUse">
      <circle cx="2" cy="2" r="0.4" fill="#000" fill-opacity="0.05"/>
    </pattern>
  </defs>
  <rect width="1200" height="800" fill="url(#co1)"/>
  <g stroke="#1A1A1A" stroke-width="1" opacity="0.16" fill="none">
    <rect x="100" y="120" width="1000" height="500"/>
    <line x1="350" y1="120" x2="350" y2="620"/>
    <line x1="600" y1="120" x2="600" y2="620"/>
    <line x1="850" y1="120" x2="850" y2="620"/>
    <line x1="100" y1="280" x2="1100" y2="280"/>
    <line x1="100" y1="440" x2="1100" y2="440"/>
  </g>
  <g fill="#2A2A2A">
    <rect x="180" y="200" width="180" height="40"/>
    <rect x="180" y="240" width="180" height="14" fill="#3D3D3D"/>
    <rect x="430" y="200" width="180" height="40"/>
    <rect x="430" y="240" width="180" height="14" fill="#3D3D3D"/>
    <rect x="680" y="200" width="180" height="40"/>
    <rect x="680" y="240" width="180" height="14" fill="#3D3D3D"/>
  </g>
  <g stroke="#1A1A1A" stroke-width="1.5" fill="none" opacity="0.4">
    <path d="M270 200 L270 150 L800 150 L800 200"/>
    <path d="M520 200 L520 170 L770 170 L770 200"/>
  </g>
  <rect y="620" width="1200" height="180" fill="#A89A78"/>
  <rect width="1200" height="800" fill="url(#co2)"/>
  <rect width="1200" height="800" fill="url(#cog)"/>
</svg>