<svg viewBox="0 0 1200 900" xmlns="http://www.w3.org/2000/svg" preserveAspectRatio="xMidYMid slice">
  <defs>
    <linearGradient id="wall2" x1="0" y1="0" x2="0" y2="1">
      <stop offset="0%" stop-color="#1f1a14"/>
      <stop offset="100%" stop-color="#0c0a07"/>
    </linearGradient>
    <linearGradient id="floor2" x1="0" y1="0" x2="0" y2="1">
      <stop offset="0%" stop-color="#3a2f1f"/>
      <stop offset="100%" stop-color="#1a1410"/>
    </linearGradient>
    <radialGradient id="lt2" cx="70%" cy="20%" r="50%">
      <stop offset="0%" stop-color="#ffd28a" stop-opacity="0.35"/>
      <stop offset="100%" stop-color="#ffd28a" stop-opacity="0"/>
    </radialGradient>
    <pattern id="g2" width="3" height="3" patternUnits="userSpaceOnUse">
      <circle cx="1.5" cy="1.5" r="0.45" fill="#fff" fill-opacity="0.04"/>
    </pattern>
  </defs>
  <rect width="1200" height="650" fill="url(#wall2)"/>
  <rect y="650" width="1200" height="250" fill="url(#floor2)"/>
  <rect x="120" y="220" width="900" height="6" fill="#c8a24b" opacity="0.18"/>
  <rect x="120" y="380" width="900" height="6" fill="#c8a24b" opacity="0.15"/>
  <rect x="850" y="80" width="240" height="80" fill="#3a3328"/>
  <rect x="860" y="92" width="220" height="20" fill="#1a1612"/>
  <rect x="880" y="125" width="40" height="22" fill="#0e0c0a"/>
  <rect x="940" y="125" width="40" height="22" fill="#0e0c0a"/>
  <rect x="1000" y="125" width="40" height="22" fill="#0e0c0a"/>
  <line x1="970" y1="160" x2="970" y2="320" stroke="#c8a24b" stroke-width="1.5" opacity="0.4"/>
  <rect x="200" y="500" width="500" height="140" fill="#2a2218" opacity="0.7"/>
  <rect x="220" y="520" width="80" height="100" fill="#1a1410"/>
  <rect x="320" y="520" width="80" height="100" fill="#1a1410"/>
  <rect x="420" y="520" width="80" height="100" fill="#1a1410"/>
  <rect x="520" y="520" width="80" height="100" fill="#1a1410"/>
  <rect width="1200" height="900" fill="url(#lt2)"/>
  <rect width="1200" height="900" fill="url(#g2)"/>
</svg>