<svg viewBox="0 0 1200 800" xmlns="http://www.w3.org/2000/svg">
  <defs>
    <linearGradient id="cr1" x1="0" y1="0" x2="0" y2="1">
      <stop offset="0%" stop-color="#F5EEDC"/>
      <stop offset="100%" stop-color="#9C8456"/>
    </linearGradient>
    <radialGradient id="cr2" cx="20%" cy="20%" r="60%">
      <stop offset="0%" stop-color="#FFF5DB" stop-opacity="0.7"/>
      <stop offset="100%" stop-color="#FFF5DB" stop-opacity="0"/>
    </radialGradient>
    <pattern id="crg" x="0" y="0" width="4" height="4" patternUnits="userSpaceOnUse">
      <circle cx="2" cy="2" r="0.4" fill="#000" fill-opacity="0.05"/>
    </pattern>
  </defs>
  <rect width="1200" height="800" fill="url(#cr1)"/>
  <g stroke="#1A1A1A" stroke-width="1" fill="none" opacity="0.18">
    <line x1="0" y1="200" x2="1200" y2="200"/>
    <line x1="0" y1="380" x2="1200" y2="380"/>
    <line x1="0" y1="560" x2="1200" y2="560"/>
  </g>
  <g fill="#1A1A1A">
    <rect x="200" y="160" width="240" height="50"/>
    <rect x="220" y="210" width="200" height="14" fill="#3D3D3D"/>
    <rect x="700" y="160" width="240" height="50"/>
    <rect x="720" y="210" width="200" height="14" fill="#3D3D3D"/>
  </g>
  <g stroke="#1A1A1A" stroke-width="2" fill="none" opacity="0.5">
    <path d="M320 160 L320 100 L820 100 L820 160"/>
  </g>
  <g fill="#2A2A2A" opacity="0.6">
    <rect x="150" y="430" width="180" height="100"/>
    <rect x="160" y="440" width="160" height="20" fill="#1A1A1A"/>
    <circle cx="200" cy="490" r="18" fill="none" stroke="#FFFFFF" stroke-width="1"/>
    <circle cx="280" cy="490" r="18" fill="none" stroke="#FFFFFF" stroke-width="1"/>
    <rect x="460" y="430" width="180" height="100"/>
    <rect x="470" y="440" width="160" height="20" fill="#1A1A1A"/>
    <circle cx="510" cy="490" r="18" fill="none" stroke="#FFFFFF" stroke-width="1"/>
    <circle cx="590" cy="490" r="18" fill="none" stroke="#FFFFFF" stroke-width="1"/>
  </g>
  <rect y="560" width="1200" height="240" fill="#7A6638"/>
  <rect width="1200" height="800" fill="url(#cr2)"/>
  <rect width="1200" height="800" fill="url(#crg)"/>
</svg>