<svg viewBox="0 0 1200 900" xmlns="http://www.w3.org/2000/svg" preserveAspectRatio="xMidYMid slice">
  <defs>
    <linearGradient id="wall3" x1="0" y1="0" x2="0" y2="1">
      <stop offset="0%" stop-color="#f1ede2"/>
      <stop offset="100%" stop-color="#d8d0bd"/>
    </linearGradient>
    <linearGradient id="floor3" x1="0" y1="0" x2="0" y2="1">
      <stop offset="0%" stop-color="#a89c84"/>
      <stop offset="100%" stop-color="#5e553f"/>
    </linearGradient>
    <radialGradient id="lt3" cx="20%" cy="10%" r="70%">
      <stop offset="0%" stop-color="#fff7e0" stop-opacity="0.55"/>
      <stop offset="100%" stop-color="#fff7e0" stop-opacity="0"/>
    </radialGradient>
    <pattern id="g3" width="3" height="3" patternUnits="userSpaceOnUse">
      <circle cx="1.5" cy="1.5" r="0.4" fill="#000" fill-opacity="0.05"/>
    </pattern>
  </defs>
  <rect width="1200" height="700" fill="url(#wall3)"/>
  <rect y="700" width="1200" height="200" fill="url(#floor3)"/>
  <g opacity="0.85">
    <rect x="120" y="80" width="200" height="60" fill="#2c2620"/>
    <rect x="135" y="92" width="170" height="16" fill="#1a1612"/>
    <rect x="155" y="120" width="35" height="14" fill="#0e0c0a"/>
    <rect x="245" y="120" width="35" height="14" fill="#0e0c0a"/>
  </g>
  <g opacity="0.85">
    <rect x="500" y="80" width="200" height="60" fill="#2c2620"/>
    <rect x="515" y="92" width="170" height="16" fill="#1a1612"/>
    <rect x="535" y="120" width="35" height="14" fill="#0e0c0a"/>
    <rect x="625" y="120" width="35" height="14" fill="#0e0c0a"/>
  </g>
  <g opacity="0.85">
    <rect x="880" y="80" width="200" height="60" fill="#2c2620"/>
    <rect x="895" y="92" width="170" height="16" fill="#1a1612"/>
    <rect x="915" y="120" width="35" height="14" fill="#0e0c0a"/>
    <rect x="1005" y="120" width="35" height="14" fill="#0e0c0a"/>
  </g>
  <line x1="0" y1="450" x2="1200" y2="450" stroke="#8a7d62" stroke-opacity="0.2" stroke-width="1"/>
  <line x1="0" y1="560" x2="1200" y2="560" stroke="#8a7d62" stroke-opacity="0.18" stroke-width="1"/>
  <rect x="200" y="500" width="60" height="200" fill="#5a4f37" opacity="0.4"/>
  <rect x="450" y="500" width="60" height="200" fill="#5a4f37" opacity="0.4"/>
  <rect x="700" y="500" width="60" height="200" fill="#5a4f37" opacity="0.4"/>
  <rect x="950" y="500" width="60" height="200" fill="#5a4f37" opacity="0.4"/>
  <rect width="1200" height="900" fill="url(#lt3)"/>
  <rect width="1200" height="900" fill="url(#g3)"/>
</svg>