<svg xmlns="http://www.w3.org/2000/svg" viewBox="0 0 1600 900" preserveAspectRatio="xMidYMid slice">
  <defs>
    <linearGradient id="paper" x1="0" y1="0" x2="1" y2="1">
      <stop offset="0%" stop-color="#FAF8F3"/>
      <stop offset="55%" stop-color="#F6F2E9"/>
      <stop offset="100%" stop-color="#EEE7D7"/>
    </linearGradient>
    <radialGradient id="light" cx="82%" cy="14%" r="58%">
      <stop offset="0%" stop-color="#FFFFFF" stop-opacity="0.85"/>
      <stop offset="100%" stop-color="#FFFFFF" stop-opacity="0"/>
    </radialGradient>
    <radialGradient id="shadow" cx="18%" cy="92%" r="55%">
      <stop offset="0%" stop-color="#1A1A1A" stop-opacity="0.06"/>
      <stop offset="100%" stop-color="#1A1A1A" stop-opacity="0"/>
    </radialGradient>
    <pattern id="grid" x="0" y="0" width="80" height="80" patternUnits="userSpaceOnUse">
      <path d="M 80 0 L 0 0 0 80" fill="none" stroke="#1A1A1A" stroke-width="0.4" stroke-opacity="0.05"/>
    </pattern>
    <pattern id="grain" x="0" y="0" width="3" height="3" patternUnits="userSpaceOnUse">
      <circle cx="1.5" cy="1.5" r="0.45" fill="#1A1A1A" fill-opacity="0.035"/>
    </pattern>
  </defs>

  <rect width="1600" height="900" fill="url(#paper)"/>
  <rect width="1600" height="900" fill="url(#light)"/>
  <rect width="1600" height="900" fill="url(#shadow)"/>
  <rect width="1600" height="900" fill="url(#grid)"/>

  <g opacity="0.22" stroke="#1A1A1A" stroke-width="0.7" fill="none">
    <rect x="1000" y="320" width="480" height="240" rx="2"/>
    <line x1="1000" y1="370" x2="1480" y2="370"/>
    <line x1="1000" y1="510" x2="1480" y2="510"/>
    <circle cx="1370" cy="440" r="78"/>
    <circle cx="1370" cy="440" r="58"/>
    <circle cx="1370" cy="440" r="38"/>
    <circle cx="1370" cy="440" r="14"/>
    <line x1="1370" y1="362" x2="1370" y2="518"/>
    <line x1="1292" y1="440" x2="1448" y2="440"/>
    <g>
      <line x1="1020" y1="390" x2="1280" y2="390"/>
      <line x1="1020" y1="410" x2="1280" y2="410"/>
      <line x1="1020" y1="430" x2="1280" y2="430"/>
      <line x1="1020" y1="450" x2="1280" y2="450"/>
      <line x1="1020" y1="470" x2="1280" y2="470"/>
      <line x1="1020" y1="490" x2="1280" y2="490"/>
    </g>
  </g>

  <g opacity="0.14" stroke="#1A1A1A" stroke-width="0.55" fill="none">
    <path d="M 0 720 Q 400 680 800 730 T 1600 720"/>
    <path d="M 0 760 Q 400 715 800 770 T 1600 760"/>
    <path d="M 0 800 Q 400 755 800 810 T 1600 800"/>
    <path d="M 0 840 Q 400 800 800 850 T 1600 840"/>
  </g>

  <g opacity="0.32" stroke="#1A1A1A" stroke-width="0.5" fill="none">
    <line x1="60" y1="60" x2="160" y2="60"/>
    <line x1="60" y1="60" x2="60" y2="160"/>
    <line x1="1540" y1="840" x2="1440" y2="840"/>
    <line x1="1540" y1="840" x2="1540" y2="740"/>
  </g>

  <rect width="1600" height="900" fill="url(#grain)"/>
</svg>