<svg viewBox="0 0 1600 900" xmlns="http://www.w3.org/2000/svg" preserveAspectRatio="xMidYMid slice">
  <defs>
    <linearGradient id="paperB" x1="0" y1="0" x2="1" y2="1">
      <stop offset="0%" stop-color="#FAF8F3"/>
      <stop offset="100%" stop-color="#F1ECDF"/>
    </linearGradient>
    <radialGradient id="lightB" cx="80%" cy="20%" r="55%">
      <stop offset="0%" stop-color="#FFFFFF" stop-opacity="0.9"/>
      <stop offset="100%" stop-color="#FFFFFF" stop-opacity="0"/>
    </radialGradient>
    <pattern id="grainB" x="0" y="0" width="3" height="3" patternUnits="userSpaceOnUse">
      <circle cx="1.5" cy="1.5" r="0.4" fill="#1A1A1A" fill-opacity="0.04"/>
    </pattern>
  </defs>
  <rect width="1600" height="900" fill="url(#paperB)"/>
  <rect width="1600" height="900" fill="url(#lightB)"/>
  <g stroke="#1A1A1A" stroke-opacity="0.08" stroke-width="0.5" fill="none">
    <line x1="950" y1="160" x2="1500" y2="160"/>
    <line x1="950" y1="200" x2="1500" y2="200"/>
    <line x1="950" y1="240" x2="1500" y2="240"/>
    <line x1="950" y1="280" x2="1500" y2="280"/>
    <line x1="950" y1="320" x2="1450" y2="320"/>
    <line x1="950" y1="380" x2="1500" y2="380"/>
    <line x1="950" y1="420" x2="1500" y2="420"/>
    <line x1="950" y1="460" x2="1500" y2="460"/>
    <line x1="950" y1="500" x2="1400" y2="500"/>
    <line x1="950" y1="560" x2="1500" y2="560"/>
    <line x1="950" y1="600" x2="1500" y2="600"/>
    <line x1="950" y1="640" x2="1380" y2="640"/>
  </g>
  <g stroke="#1A1A1A" stroke-opacity="0.12" stroke-width="0.5" fill="none">
    <line x1="950" y1="120" x2="1100" y2="120"/>
    <line x1="950" y1="730" x2="1500" y2="730"/>
  </g>
  <g fill="#1A1A1A" fill-opacity="0.2" font-family="Outfit, sans-serif" font-weight="300" font-size="10" letter-spacing="2">
    <text x="950" y="105">— editorial column</text>
  </g>
  <rect width="1600" height="900" fill="url(#grainB)"/>
</svg>