<svg viewBox="0 0 1600 900" xmlns="http://www.w3.org/2000/svg" preserveAspectRatio="xMidYMid slice">
  <defs>
    <linearGradient id="paperS" x1="0" y1="0" x2="1" y2="1">
      <stop offset="0%" stop-color="#FAF8F3"/>
      <stop offset="100%" stop-color="#F1ECDF"/>
    </linearGradient>
    <radialGradient id="lightS" cx="82%" cy="22%" r="55%">
      <stop offset="0%" stop-color="#FFFFFF" stop-opacity="0.9"/>
      <stop offset="100%" stop-color="#FFFFFF" stop-opacity="0"/>
    </radialGradient>
    <pattern id="grainS" x="0" y="0" width="3" height="3" patternUnits="userSpaceOnUse">
      <circle cx="1.5" cy="1.5" r="0.4" fill="#1A1A1A" fill-opacity="0.04"/>
    </pattern>
  </defs>
  <rect width="1600" height="900" fill="url(#paperS)"/>
  <rect width="1600" height="900" fill="url(#lightS)"/>
  <g stroke="#1A1A1A" stroke-opacity="0.1" stroke-width="0.5" fill="none">
    <line x1="0" y1="220" x2="1600" y2="220"/>
    <line x1="0" y1="370" x2="1600" y2="370"/>
    <line x1="0" y1="520" x2="1600" y2="520"/>
    <line x1="0" y1="670" x2="1600" y2="670"/>
    <line x1="900" y1="0" x2="900" y2="900"/>
  </g>
  <g fill="#1A1A1A" fill-opacity="0.2" font-family="Outfit, sans-serif" font-weight="300" font-size="11" letter-spacing="2">
    <text x="940" y="250">01 — buyback</text>
    <text x="940" y="400">02 — sales</text>
    <text x="940" y="550">03 — installation</text>
    <text x="940" y="700">04 — maintenance</text>
  </g>
  <g stroke="#1A1A1A" stroke-opacity="0.07" stroke-width="0.5" fill="none">
    <rect x="1100" y="100" width="380" height="80"/>
    <line x1="1100" y1="130" x2="1480" y2="130"/>
    <line x1="1100" y1="160" x2="1480" y2="160"/>
  </g>
  <rect width="1600" height="900" fill="url(#grainS)"/>
</svg>