<svg viewBox="0 0 1600 900" xmlns="http://www.w3.org/2000/svg" preserveAspectRatio="xMidYMid slice">
  <defs>
    <linearGradient id="paperH" x1="0" y1="0" x2="1" y2="1">
      <stop offset="0%" stop-color="#FAF8F3"/>
      <stop offset="60%" stop-color="#F6F2E9"/>
      <stop offset="100%" stop-color="#EFEADD"/>
    </linearGradient>
    <radialGradient id="lightH" cx="78%" cy="18%" r="55%">
      <stop offset="0%" stop-color="#FFFFFF" stop-opacity="0.85"/>
      <stop offset="100%" stop-color="#FFFFFF" stop-opacity="0"/>
    </radialGradient>
    <radialGradient id="shadeH" cx="15%" cy="95%" r="60%">
      <stop offset="0%" stop-color="#1A1A1A" stop-opacity="0.05"/>
      <stop offset="100%" stop-color="#1A1A1A" stop-opacity="0"/>
    </radialGradient>
    <pattern id="grainH" x="0" y="0" width="3" height="3" patternUnits="userSpaceOnUse">
      <circle cx="1.5" cy="1.5" r="0.4" fill="#1A1A1A" fill-opacity="0.04"/>
    </pattern>
  </defs>
  <rect width="1600" height="900" fill="url(#paperH)"/>
  <rect width="1600" height="900" fill="url(#lightH)"/>
  <rect width="1600" height="900" fill="url(#shadeH)"/>
  <g stroke="#1A1A1A" stroke-opacity="0.1" stroke-width="0.5" fill="none">
    <line x1="0" y1="640" x2="1600" y2="640"/>
    <line x1="1080" y1="0" x2="1080" y2="900"/>
    <line x1="0" y1="120" x2="1600" y2="120"/>
    <rect x="1180" y="200" width="320" height="170"/>
    <line x1="1180" y1="240" x2="1500" y2="240"/>
    <line x1="1180" y1="280" x2="1500" y2="280"/>
    <line x1="1180" y1="320" x2="1500" y2="320"/>
    <line x1="1220" y1="370" x2="1220" y2="420"/>
    <line x1="1460" y1="370" x2="1460" y2="420"/>
    <line x1="1180" y1="420" x2="1500" y2="420"/>
  </g>
  <g stroke="#1A1A1A" stroke-opacity="0.06" stroke-width="0.5" fill="none">
    <line x1="1180" y1="500" x2="1500" y2="500"/>
    <line x1="1180" y1="540" x2="1500" y2="540"/>
    <line x1="1180" y1="580" x2="1500" y2="580"/>
  </g>
  <g fill="#1A1A1A" fill-opacity="0.18" font-family="Outfit, sans-serif" font-weight="300" font-size="11" letter-spacing="2">
    <text x="1180" y="180">— commercial air conditioning</text>
  </g>
  <rect width="1600" height="900" fill="url(#grainH)"/>
</svg>